<svg width="27" height="26" viewBox="0 0 27 26" fill="none" xmlns="http://www.w3.org/2000/svg">
<path d="M19.4101 12.9939C19.3626 13.7184 19.0413 14.3977 18.5113 14.8941C17.9814 15.3904 17.2825 15.6666 16.5564 15.6666C15.8303 15.6666 15.1314 15.3904 14.6015 14.8941C14.0715 14.3977 13.7502 13.7184 13.7027 12.9939V6.22219C13.7502 5.49766 14.0715 4.81833 14.6015 4.32199C15.1314 3.82565 15.8303 3.54947 16.5564 3.54947C17.2825 3.54947 17.9814 3.82565 18.5113 4.32199C19.0413 4.81833 19.3626 5.49766 19.4101 6.22219V12.9939ZM13.1328 0C5.87901 0 0 5.8116 0 12.9939C0 20.1761 5.87901 26 13.1328 26C20.3866 26 26.2574 20.1741 26.2574 12.9939C26.2574 5.81364 20.3784 0 13.1328 0Z" fill="#B8C400"/>
</svg>
