<svg width="61" height="60" viewBox="0 0 61 60" fill="none" xmlns="http://www.w3.org/2000/svg">
<g clip-path="url(#clip0_34_6465)">
<path d="M21.8427 29.2929C21.4522 29.6834 21.4522 30.3166 21.8427 30.7071L28.2067 37.0711C28.5972 37.4616 29.2303 37.4616 29.6209 37.0711C30.0114 36.6805 30.0114 36.0474 29.6209 35.6569L23.964 30L29.6209 24.3431C30.0114 23.9526 30.0114 23.3195 29.6209 22.9289C29.2303 22.5384 28.5972 22.5384 28.2067 22.9289L21.8427 29.2929ZM37.5498 29H22.5498V31H37.5498V29Z" fill="#0B3373"/>
<path d="M1.5498 30C1.5498 46.0163 14.5335 59 30.5498 59C46.5661 59 59.5498 46.0163 59.5498 30C59.5498 13.9837 46.5661 1 30.5498 1C14.5335 1 1.5498 13.9837 1.5498 30Z" stroke="#0B3373" stroke-width="2"/>
</g>
<defs>
<clipPath id="clip0_34_6465">
<rect width="60" height="60" fill="white" transform="translate(0.549805)"/>
</clipPath>
</defs>
</svg>
