<svg width="60" height="60" viewBox="0 0 60 60" fill="none" xmlns="http://www.w3.org/2000/svg">
<g clip-path="url(#clip0_34_6468)">
<path d="M38.7071 30.7071C39.0976 30.3166 39.0976 29.6834 38.7071 29.2929L32.3431 22.9289C31.9526 22.5384 31.3195 22.5384 30.9289 22.9289C30.5384 23.3195 30.5384 23.9526 30.9289 24.3431L36.5858 30L30.9289 35.6569C30.5384 36.0474 30.5384 36.6805 30.9289 37.0711C31.3195 37.4616 31.9526 37.4616 32.3431 37.0711L38.7071 30.7071ZM23 31H38V29H23V31Z" fill="#0B3373"/>
<path d="M59 30C59 13.9837 46.0163 1 30 1C13.9837 1 1 13.9837 1 30C1 46.0163 13.9837 59 30 59C46.0163 59 59 46.0163 59 30Z" stroke="#0B3373" stroke-width="2"/>
</g>
<defs>
<clipPath id="clip0_34_6468">
<rect width="60" height="60" fill="white"/>
</clipPath>
</defs>
</svg>
