<svg width="37" height="12" viewBox="0 0 37 12" fill="none" xmlns="http://www.w3.org/2000/svg">
<path fill-rule="evenodd" clip-rule="evenodd" d="M22.155 0.183709C21.5057 0.322284 20.6882 0.658718 20.2057 0.98588C19.6541 1.35992 19.2578 1.83383 18.949 2.48874C18.7029 3.01077 18.6909 3.0721 18.6909 3.80294C18.6909 4.50757 18.708 4.60409 18.9025 4.99645C19.2371 5.67165 19.9482 6.29451 21.0814 6.90495C22.1957 7.50525 22.5513 7.7916 22.6654 8.18075C22.7355 8.41979 22.7279 8.50287 22.6134 8.74133C22.3531 9.28402 21.771 9.52963 20.7637 9.52174C19.9287 9.51517 19.3363 9.39762 18.5909 9.09061C18.2587 8.95379 17.9803 8.84982 17.9722 8.85953C17.9504 8.88538 17.4922 11.1219 17.4833 11.2451C17.4733 11.3854 18.3375 11.6608 19.2531 11.809C20.2396 11.9685 21.8289 11.9127 22.622 11.6906C24.6699 11.1173 25.83 9.64973 25.7148 7.77802C25.6412 6.58239 24.9822 5.7973 23.2654 4.85984C21.9792 4.15755 21.6572 3.86733 21.6572 3.41058C21.6572 3.19315 21.9519 2.81765 22.2435 2.6636C22.8306 2.35345 24.048 2.39003 25.1677 2.75129C25.4851 2.85372 25.7545 2.92688 25.7665 2.91388C25.7785 2.90089 25.8997 2.37156 26.0358 1.73746C26.321 0.407999 26.3746 0.546208 25.4783 0.298409C24.7446 0.0955848 22.8707 0.0308972 22.155 0.183709ZM0 0.441584C0 0.549275 0.075407 0.604033 0.303772 0.662149C0.969998 0.831827 2.27157 1.27464 2.60887 1.44636C3.10176 1.6973 3.33713 1.94306 3.46136 2.33622C3.55664 2.63805 3.97148 4.25853 5.2945 9.49779C5.5328 10.4415 5.75916 11.3374 5.79754 11.4887L5.8673 11.764L7.40825 11.7443L8.94927 11.7246L11.2882 6.02977L13.6272 0.334915L12.1258 0.315201C11.2386 0.30352 10.6074 0.323598 10.5827 0.364338C10.5598 0.402304 9.88525 2.12785 9.08372 4.19895C8.28226 6.27005 7.60631 7.96456 7.58158 7.96456C7.55685 7.96456 7.28317 6.57648 6.97332 4.87985C6.66355 3.18322 6.36635 1.6186 6.31289 1.40285C6.18966 0.90586 5.99432 0.625645 5.64344 0.442752C5.38198 0.306514 5.21509 0.298409 2.6832 0.298409C0.0652568 0.298409 0 0.301914 0 0.441584ZM14.8961 0.481812C14.8713 0.582713 14.329 3.15358 13.6908 6.19492L12.5306 11.7246L13.9594 11.7444C14.7452 11.7553 15.3968 11.7553 15.4075 11.7444C15.4288 11.7226 17.7975 0.428588 17.7975 0.348422C17.7975 0.320896 17.1548 0.298409 16.3693 0.298409H14.9412L14.8961 0.481812ZM30.617 0.415008C30.4934 0.477286 30.3239 0.6025 30.2405 0.693179C30.1571 0.783859 29.0909 3.28383 27.8713 6.24851C26.6517 9.21327 25.6372 11.6665 25.6169 11.7001C25.5966 11.7337 26.2692 11.7612 27.1116 11.7612H28.6434L28.9588 10.9033L29.2743 10.0454L31.148 10.0259C32.1786 10.0152 33.0218 10.0198 33.0218 10.0361C33.0218 10.0965 33.312 11.5101 33.3497 11.6334C33.3851 11.749 33.5141 11.7612 34.7063 11.7612C35.5368 11.7612 36.0238 11.7341 36.0238 11.6881C36.0238 11.648 35.7493 10.2763 35.4138 8.63991C35.0783 7.00359 34.5562 4.45733 34.2536 2.98156L33.7035 0.298409L32.2727 0.300088C31.1264 0.301402 30.7971 0.324255 30.617 0.415008ZM32.0901 5.56126C32.3227 6.70038 32.5034 7.64229 32.4917 7.65427C32.4799 7.66631 31.9404 7.66711 31.2927 7.65609L30.1151 7.63601L30.661 6.10278C30.9614 5.25951 31.2975 4.31336 31.4082 4.00021C31.5188 3.68707 31.6223 3.44423 31.6383 3.46044C31.6541 3.47672 31.8575 4.42207 32.0901 5.56126Z" fill="#DFE3BF"/>
</svg>
