<svg width="19" height="17" viewBox="0 0 19 17" fill="none" xmlns="http://www.w3.org/2000/svg">
<path d="M9.41173 2.88235V1V2.88235Z" fill="white"/>
<path d="M9.41173 2.88235V1" stroke="white" stroke-width="1.88235" stroke-linecap="round"/>
<path fill-rule="evenodd" clip-rule="evenodd" d="M18.8234 5.70589H-0.000167847V8.52942C0.352943 8.52942 0.529498 8.52942 0.684604 8.55549C1.3289 8.66392 1.87088 9.09874 2.1165 9.70411C2.17563 9.84989 2.21392 10.0222 2.29052 10.367L3.10942 14.052C3.42348 15.4653 3.58052 16.172 4.09667 16.586C4.61282 17 5.33671 17 6.78448 17H12.0387C13.4865 17 14.2104 17 14.7265 16.586C15.2427 16.172 15.3997 15.4653 15.7138 14.052L16.5326 10.367C16.6092 10.0223 16.6476 9.84989 16.7067 9.70411C16.9523 9.09874 17.4943 8.66392 18.1386 8.55549C18.2937 8.52942 18.4702 8.52942 18.8234 8.52942V5.70589ZM7.04585 10.257C6.9604 9.74429 6.47547 9.39794 5.96275 9.4834C5.45003 9.56886 5.10365 10.0538 5.18911 10.5665L5.6597 13.39C5.74515 13.9028 6.23007 14.2491 6.7428 14.1637C7.25552 14.0782 7.6019 13.5933 7.51644 13.0806L7.04585 10.257ZM13.634 10.5665C13.7195 10.0538 13.3731 9.56886 12.8604 9.4834C12.3476 9.39794 11.8627 9.74429 11.7772 10.257L11.3067 13.0806C11.2212 13.5933 11.5676 14.0782 12.0803 14.1637C12.5931 14.2491 13.078 13.9028 13.1634 13.39L13.634 10.5665Z" fill="white"/>
</svg>
