<svg width="27" height="16" viewBox="0 0 27 16" fill="none" xmlns="http://www.w3.org/2000/svg">
<g clip-path="url(#clip0_34_6442)">
<g clip-path="url(#clip1_34_6442)">
<path d="M26.0167 6.8974C25.8701 6.3304 25.4426 6.0345 24.7463 6.0345C24.0012 6.0345 23.2561 6.0345 22.5231 6.0345C22.572 5.14706 22.4865 4.2719 22.291 3.39675C20.8863 -2.92654 13.4105 -6.05736 8.03578 -2.51978C4.94532 -0.498299 3.46727 2.37368 3.58942 6.0345C2.83207 6.0345 2.08694 6.0345 1.32959 6.0222C0.498954 6.0099 -0.185101 6.7248 0.144711 7.6493C1.47618 11.4703 2.79543 15.2791 4.12689 19.1002C4.34677 19.7412 4.73766 20 5.4095 20C7.96249 20 10.5155 20 13.0563 20C15.6215 20 18.1745 20 20.7397 20C21.3749 20 21.7658 19.7288 21.9857 19.1248C23.3171 15.3038 24.6486 11.4703 25.9801 7.6493C26.0656 7.4027 26.09 7.1439 26.0167 6.8974ZM14.5588 6.0345C14.5099 6.0345 14.4733 6.0345 14.4488 6.0345H11.7615C11.7248 6.0345 11.676 6.0345 11.6149 6.0345H10.601C8.96414 6.0345 7.33951 6.0345 5.70266 6.0345C5.60494 4.32121 6.00804 2.73114 7.02191 1.32597C8.6954 -0.991339 10.9797 -2.03906 13.7892 -1.80486C17.0873 -1.53369 19.8969 1.20271 20.3366 4.5061C20.4099 5.01147 20.4099 5.52917 20.3977 6.0345C18.4554 6.0345 16.5132 6.0345 14.5588 6.0345Z" fill="#0B3373"/>
</g>
</g>
<defs>
<clipPath id="clip0_34_6442">
<rect width="26" height="16" fill="white" transform="translate(0.0600586)"/>
</clipPath>
<clipPath id="clip1_34_6442">
<rect width="26" height="24" fill="white" transform="translate(0.0600586 -4)"/>
</clipPath>
</defs>
</svg>
