<svg width="318" height="72" viewBox="0 0 318 72" fill="none" xmlns="http://www.w3.org/2000/svg">
<g clip-path="url(#clip0_34_6622)">
<g clip-path="url(#clip1_34_6622)">
<g clip-path="url(#clip2_34_6622)">
<path d="M71.7545 68.1995C92.3807 69.5302 240.867 71.2491 312.532 71.9422C331.661 66.1202 289.66 59.8825 277.601 50.7338C265.541 41.5851 258.472 51.1496 244.333 50.7338C230.194 50.3179 228.53 49.0704 221.461 37.0107C214.391 24.951 210.233 32.0205 200.668 32.4364C191.104 32.8522 186.529 27.862 185.698 17.4657C184.866 7.06941 171.559 0 158.667 0C145.776 0 132.053 6.65361 126.231 17.4657C120.409 28.2778 115.003 20.3767 106.686 20.3767C98.369 20.3767 96.2898 20.3767 87.9727 27.862C79.6557 35.3473 74.6655 27.862 66.7644 20.3767C58.8632 12.8913 44.7243 9.98039 31.0012 17.4657C17.2781 24.951 22.2682 43.2485 19.7731 44.0802C17.278 44.9119 -3.93038 56.9715 0.643983 64.8727C5.21834 72.7739 45.9717 66.5361 71.7545 68.1995Z" fill="#F8FAE2"/>
</g>
</g>
</g>
<defs>
<clipPath id="clip0_34_6622">
<rect width="318" height="72" rx="3" fill="white"/>
</clipPath>
<clipPath id="clip1_34_6622">
<rect width="318" height="72" fill="white"/>
</clipPath>
<clipPath id="clip2_34_6622">
<rect width="318" height="72" fill="white"/>
</clipPath>
</defs>
</svg>
