<svg width="229" height="62" viewBox="0 0 229 62" fill="none" xmlns="http://www.w3.org/2000/svg">
<g clip-path="url(#clip0_34_6252)">
<g clip-path="url(#clip1_34_6252)">
<g clip-path="url(#clip2_34_6252)">
<path d="M144.076 58.4103C181.37 65.5922 213.16 58.0363 224.393 53.3605C243.489 42.1387 192.378 51.6772 194.625 43.2609C196.872 34.8446 194.625 29.2337 185.639 23.6228C176.652 18.0119 163.734 29.7948 162.049 23.6228C160.364 17.4508 149.693 18.0119 144.076 23.6228C138.46 29.2337 139.021 21.9395 130.596 11.8399C122.172 1.74032 111.5 17.4508 108.692 21.9395C105.884 26.4282 100.829 19.6952 92.9655 11.8399C85.1023 3.98468 84.5407 7.91231 81.1707 3.98469C77.8008 0.0570614 62.6361 -3.87056 54.773 14.0843C46.9098 32.0391 54.773 33.1613 44.6632 31.478C34.5534 29.7948 35.6767 38.7722 30.6218 35.9668C25.5669 33.1613 15.4571 38.2111 15.4571 45.5053C15.4571 52.7994 9.27896 47.1885 4.22407 49.994C-0.830825 52.7994 -3.6391 58.4103 20.5121 58.4103C44.6632 58.4103 97.4588 49.4329 144.076 58.4103Z" fill="#F8FAE2"/>
</g>
</g>
</g>
<defs>
<clipPath id="clip0_34_6252">
<rect width="229" height="62" rx="3" fill="white"/>
</clipPath>
<clipPath id="clip1_34_6252">
<rect width="229" height="62" fill="white"/>
</clipPath>
<clipPath id="clip2_34_6252">
<rect width="229" height="62" fill="white"/>
</clipPath>
</defs>
</svg>
