<svg width="275" height="53" viewBox="0 0 275 53" fill="none" xmlns="http://www.w3.org/2000/svg">
<g clip-path="url(#clip0_34_6606)">
<g clip-path="url(#clip1_34_6606)">
<g clip-path="url(#clip2_34_6606)">
<path d="M111.557 49.8311C149.37 49.8311 230.098 45.369 265.736 43.1379C297.247 28.6361 235.35 35.3293 225.222 28.6362C215.093 21.943 202.714 10.7878 188.084 20.8275C173.454 30.8672 165.576 30.8672 155.447 10.7878C145.319 -9.29158 123.936 20.8275 105.93 20.8275C87.9236 20.8275 82.2966 -2.59845 59.7887 0.748119C37.2808 4.09469 33.9045 21.943 23.7759 20.8275C13.6474 19.712 -8.86054 26.4051 5.76961 43.1379C20.3998 59.8708 64.2902 49.8311 111.557 49.8311Z" fill="#F8FAE2"/>
</g>
</g>
</g>
<defs>
<clipPath id="clip0_34_6606">
<rect width="275" height="53" rx="3" fill="white"/>
</clipPath>
<clipPath id="clip1_34_6606">
<rect width="275" height="53" fill="white"/>
</clipPath>
<clipPath id="clip2_34_6606">
<rect width="275" height="53" fill="white"/>
</clipPath>
</defs>
</svg>
