<svg width="41" height="40" viewBox="0 0 41 40" fill="none" xmlns="http://www.w3.org/2000/svg">
<g clip-path="url(#clip0_34_6360)">
<path d="M0 20.0602C0 31.2696 8.82353 40.0012 20 40.0012C31.1765 40.0012 40 31.2696 40 20.0602C40.1176 8.85072 31.4118 0.11916 20.1176 0.00116627C8.94118 -0.116828 0 8.73273 0 20.0602ZM25.5294 11.3286C26.1176 10.2667 26.5882 9.79467 27.7647 10.5026C28.7059 11.0926 29.2941 11.5646 28.7059 12.7445C25.7647 17.9363 22.9412 23.128 20 28.2017C19.7647 28.5557 19.6471 29.1457 18.8235 29.1457C18.4706 29.0277 18.1176 28.7917 17.6471 28.5557C15.5294 27.2578 13.4118 25.8419 11.1765 24.5439C10 23.836 9.64706 23.246 10.4706 21.9481C11.2941 20.6501 12.1176 21.0041 13.0588 21.5941C14.5882 22.538 16.3529 24.6619 17.6471 24.072C19.0588 23.482 19.7647 21.0041 20.8235 19.3522C22.4706 16.7563 24 14.0425 25.5294 11.3286Z" fill="#B7C029"/>
</g>
<defs>
<clipPath id="clip0_34_6360">
<rect width="41" height="40" fill="white"/>
</clipPath>
</defs>
</svg>
