<svg width="32" height="26" viewBox="0 0 32 26" fill="none" xmlns="http://www.w3.org/2000/svg">
<g clip-path="url(#clip0_34_6557)">
<mask id="mask0_34_6557" style="mask-type:luminance" maskUnits="userSpaceOnUse" x="0" y="0" width="32" height="26">
<path d="M32 0.370117H0V25.3701H32V0.370117Z" fill="white"/>
</mask>
<g mask="url(#mask0_34_6557)">
<path d="M5.81764 25.2459V23.5912C5.81764 22.9568 5.43339 22.5432 4.77477 22.5432C4.44552 22.5432 4.08877 22.6535 3.84177 23.0121C3.64977 22.7087 3.37539 22.5432 2.96377 22.5432C2.68927 22.5432 2.41502 22.6259 2.19539 22.9293V22.5984H1.61914V25.2459H2.19539V23.7842C2.19539 23.3155 2.44239 23.0947 2.82664 23.0947C3.21064 23.0947 3.40289 23.343 3.40289 23.7842V25.2459H3.97914V23.7842C3.97914 23.3155 4.25339 23.0947 4.61014 23.0947C4.99439 23.0947 5.18639 23.343 5.18639 23.7842V25.2459H5.81764ZM14.3515 22.5984H13.4186V21.7986H12.8424V22.5984H12.321V23.1223H12.8423V24.3358C12.8423 24.9426 13.0893 25.301 13.7479 25.301C13.9949 25.301 14.2691 25.2184 14.4614 25.1081L14.2966 24.6116C14.132 24.7219 13.94 24.7495 13.8028 24.7495C13.5284 24.7495 13.4186 24.5841 13.4186 24.3082V23.1223H14.3515V22.5984ZM19.236 22.5431C18.9068 22.5431 18.6873 22.7087 18.55 22.9293V22.5984H17.9738V25.2459H18.55V23.7567C18.55 23.3155 18.742 23.0672 19.0988 23.0672C19.2085 23.0672 19.3458 23.0949 19.4555 23.1224L19.6201 22.5709C19.5104 22.5432 19.3458 22.5431 19.236 22.5431ZM11.8545 22.8191C11.58 22.626 11.1959 22.5434 10.7843 22.5434C10.1258 22.5434 9.68677 22.8743 9.68677 23.3983C9.68677 23.8396 10.016 24.0877 10.5923 24.1705L10.8666 24.1981C11.1685 24.2532 11.3331 24.3359 11.3331 24.4739C11.3331 24.6669 11.1136 24.8048 10.7294 24.8048C10.3453 24.8048 10.0434 24.6669 9.85126 24.529L9.57689 24.9702C9.87877 25.1908 10.2904 25.3011 10.7019 25.3011C11.4703 25.3011 11.9094 24.9427 11.9094 24.4462C11.9094 23.9774 11.5526 23.7292 11.0038 23.6465L10.7294 23.6189C10.4824 23.5912 10.2904 23.5362 10.2904 23.3707C10.2904 23.1777 10.4824 23.0674 10.7843 23.0674C11.1136 23.0674 11.4429 23.2052 11.6075 23.288L11.8545 22.8191ZM27.1664 22.5434C26.837 22.5434 26.6175 22.7088 26.4803 22.9294V22.5985H25.904V25.246H26.4803V23.7568C26.4803 23.3156 26.6724 23.0674 27.029 23.0674C27.1389 23.0674 27.2761 23.095 27.3859 23.1225L27.5505 22.571C27.4408 22.5434 27.2761 22.5434 27.1664 22.5434ZM19.8123 23.9223C19.8123 24.722 20.361 25.3011 21.2118 25.3011C21.5959 25.3011 21.8703 25.2185 22.1446 24.9979L21.8703 24.529C21.6508 24.6945 21.4313 24.7772 21.1843 24.7772C20.7178 24.7772 20.3885 24.4463 20.3885 23.9223C20.3885 23.4259 20.7178 23.0949 21.1843 23.0674C21.4313 23.0674 21.6508 23.15 21.8703 23.3156L22.1446 22.8468C21.8703 22.626 21.5959 22.5434 21.2118 22.5434C20.361 22.5434 19.8123 23.1225 19.8123 23.9223ZM25.1358 23.9223V22.5985H24.5595V22.9294C24.3674 22.6813 24.093 22.5434 23.7363 22.5434C22.9954 22.5434 22.4191 23.1225 22.4191 23.9223C22.4191 24.722 22.9954 25.3011 23.7363 25.3011C24.1204 25.3011 24.3949 25.1633 24.5595 24.9151V25.246H25.1358V23.9223ZM23.0228 23.9223C23.0228 23.4534 23.3246 23.0674 23.8185 23.0674C24.285 23.0674 24.6144 23.4259 24.6144 23.9223C24.6144 24.3911 24.285 24.7772 23.8185 24.7772C23.3246 24.7495 23.0228 24.3911 23.0228 23.9223ZM16.1353 22.5434C15.3669 22.5434 14.818 23.0949 14.818 23.9223C14.818 24.7496 15.3668 25.3011 16.1626 25.3011C16.5468 25.3011 16.931 25.1908 17.2329 24.9427L16.9584 24.529C16.7389 24.6945 16.4645 24.8048 16.1901 24.8048C15.8334 24.8048 15.4766 24.6393 15.3943 24.1704H17.3426V23.9499C17.3701 23.0949 16.8763 22.5434 16.1353 22.5434ZM16.1351 23.0397C16.4918 23.0397 16.7389 23.2604 16.7936 23.6741H15.4216C15.4765 23.3156 15.7235 23.0397 16.1351 23.0397ZM30.4316 23.9223V21.5505H29.8554V22.9294C29.6633 22.6813 29.3889 22.5434 29.0321 22.5434C28.2913 22.5434 27.715 23.1225 27.715 23.9223C27.715 24.722 28.2913 25.3011 29.0321 25.3011C29.4164 25.3011 29.6908 25.1633 29.8554 24.9151V25.246H30.4316V23.9223ZM28.3188 23.9223C28.3188 23.4534 28.6205 23.0674 29.1145 23.0674C29.581 23.0674 29.9103 23.4259 29.9103 23.9223C29.9103 24.3911 29.581 24.7772 29.1145 24.7772C28.6205 24.7495 28.3188 24.3911 28.3188 23.9223ZM9.05539 23.9223V22.5985H8.47914V22.9294C8.28702 22.6813 8.01264 22.5434 7.65589 22.5434C6.91502 22.5434 6.33877 23.1225 6.33877 23.9223C6.33877 24.722 6.91502 25.3011 7.65589 25.3011C8.04014 25.3011 8.31452 25.1633 8.47914 24.9151V25.246H9.05539V23.9223ZM6.91502 23.9223C6.91502 23.4534 7.21689 23.0674 7.71077 23.0674C8.17727 23.0674 8.50664 23.4259 8.50664 23.9223C8.50664 24.3911 8.17727 24.7772 7.71077 24.7772C7.21689 24.7495 6.91502 24.3911 6.91502 23.9223Z" fill="#DFE3BF"/>
<path d="M11.6621 2.49365H20.3059V18.1031H11.6621V2.49365Z" fill="#FF5F00"/>
<path d="M12.2111 10.2984C12.2111 7.1269 13.6929 4.31384 15.9704 2.49361C14.2966 1.16987 12.1837 0.370117 9.87875 0.370117C4.41787 0.370117 0 4.8102 0 10.2984C0 15.7864 4.41787 20.2266 9.87862 20.2266C12.1836 20.2266 14.2965 19.4269 15.9704 18.103C13.6929 16.3104 12.2111 13.4698 12.2111 10.2984Z" fill="#EB001B"/>
<path d="M31.9684 10.2984C31.9684 15.7864 27.5505 20.2266 22.0898 20.2266C19.7848 20.2266 17.6719 19.4269 15.998 18.103C18.303 16.2829 19.7574 13.4698 19.7574 10.2984C19.7574 7.1269 18.2755 4.31384 15.998 2.49361C17.6718 1.16987 19.7848 0.370117 22.0898 0.370117C27.5505 0.370117 31.9684 4.83783 31.9684 10.2984Z" fill="#F79E1B"/>
</g>
</g>
<defs>
<clipPath id="clip0_34_6557">
<rect width="32" height="25" fill="white" transform="translate(0 0.370117)"/>
</clipPath>
</defs>
</svg>
