<svg width="20" height="17" viewBox="0 0 20 17" fill="none" xmlns="http://www.w3.org/2000/svg">
<path d="M13.2948 10.9493L12.8125 11.3638C12.8125 11.3638 11.6663 12.3491 8.53742 9.65968C5.40861 6.97032 6.55487 5.98505 6.55487 5.98505L6.85855 5.72401C7.60671 5.08097 7.67723 4.04856 7.02446 3.29487L5.68935 1.75312C4.88148 0.820271 3.32044 0.697043 2.39448 1.49294L0.732547 2.92146C0.273419 3.3161 -0.0342549 3.82768 0.0030581 4.39519C0.0985113 5.84706 0.858399 8.97091 5.09863 12.6156C9.59519 16.4806 13.8143 16.6342 15.5397 16.4951C16.0854 16.4512 16.5599 16.2109 16.9424 15.8821L18.4466 14.5894C19.4619 13.7166 19.1756 12.2204 17.8765 11.61L15.8536 10.6594C15.0006 10.2586 13.9615 10.3763 13.2948 10.9493Z" fill="#0B3373"/>
</svg>
