<svg width="18" height="18" viewBox="0 0 18 18" fill="none" xmlns="http://www.w3.org/2000/svg">
<path d="M9.20416 10.3099C9.20416 10.3099 9.52457 10.3369 9.69647 10.1245L10.0331 9.70153C10.1951 9.49273 10.5857 9.35953 10.9691 9.57193C11.2562 9.73578 11.535 9.91391 11.8043 10.1056C12.0581 10.2919 12.5783 10.7266 12.5801 10.7266C12.8285 10.9363 12.8861 11.2433 12.7169 11.5673L12.7151 11.5745C12.5292 11.8969 12.2931 12.1876 12.0158 12.4358L12.0095 12.4403C11.7689 12.6413 11.5322 12.7556 11.2994 12.7832C11.2653 12.7894 11.2306 12.7918 11.1959 12.7904C11.0935 12.7912 10.9917 12.7754 10.8944 12.7436L10.8863 12.7328C10.5281 12.6311 9.93047 12.3782 8.93416 11.8292C8.35794 11.5149 7.80938 11.1524 7.29434 10.7455C7.03602 10.5417 6.78961 10.3233 6.55633 10.0912L6.53203 10.0669L6.50683 10.0417L6.48163 10.0174L6.45733 9.99224C6.22528 9.75896 6.00682 9.51255 5.80302 9.25423C5.39622 8.73916 5.03372 8.19059 4.71941 7.61441C4.1704 6.61809 3.91749 6.02138 3.81579 5.66138L3.80499 5.65418C3.77347 5.55683 3.75797 5.455 3.75909 5.35268C3.75725 5.31805 3.75936 5.28332 3.76539 5.24917C3.79419 5.01697 3.90879 4.77997 4.1092 4.53817L4.1137 4.53186C4.36179 4.25444 4.65254 4.01837 4.97501 3.83256L4.98131 3.83166C5.30531 3.66245 5.61312 3.72005 5.82192 3.96666C5.82372 3.96756 6.25753 4.48866 6.44293 4.74247C6.63468 5.01208 6.81281 5.29114 6.97663 5.57858C7.18994 5.96108 7.05674 6.35259 6.84703 6.51459L6.42403 6.8503C6.21073 7.0231 6.23863 7.3435 6.23863 7.3435C6.23863 7.3435 6.86503 9.71323 9.20416 10.3099ZM8.41395 3.22235C8.3839 3.22199 8.35407 3.22759 8.32619 3.23882C8.29831 3.25004 8.27293 3.26668 8.25151 3.28776C8.23009 3.30885 8.21306 3.33396 8.2014 3.36166C8.18973 3.38936 8.18367 3.4191 8.18355 3.44915C8.18343 3.47905 8.18921 3.50869 8.20054 3.53636C8.21187 3.56403 8.22855 3.5892 8.24961 3.61043C8.27067 3.63165 8.2957 3.64852 8.32328 3.66008C8.35086 3.67163 8.38045 3.67764 8.41035 3.67775C9.62807 3.68675 10.619 4.08006 11.4308 4.87117C12.2354 5.65598 12.6467 6.72249 12.6575 8.12111C12.6576 8.15101 12.6636 8.1806 12.6752 8.20818C12.6867 8.23576 12.7036 8.2608 12.7248 8.28186C12.7461 8.30292 12.7712 8.31959 12.7989 8.33093C12.8266 8.34226 12.8562 8.34803 12.8861 8.34791C12.9161 8.3478 12.9458 8.34176 12.9734 8.33015C13.001 8.31854 13.0261 8.30159 13.0472 8.28027C13.0683 8.25895 13.0849 8.23367 13.0962 8.20589C13.1075 8.17812 13.1132 8.14839 13.1129 8.11841C13.1012 6.62979 12.6476 5.42198 11.7485 4.54537C10.8575 3.67685 9.73067 3.23135 8.41395 3.22235ZM8.83066 4.40406C8.80081 4.40186 8.77082 4.40555 8.7424 4.41495C8.71399 4.42434 8.6877 4.43924 8.66505 4.4588C8.6424 4.47836 8.62382 4.50219 8.61039 4.52894C8.59695 4.55568 8.58892 4.58482 8.58676 4.61467C8.58455 4.64451 8.58825 4.6745 8.59764 4.70292C8.60703 4.73134 8.62193 4.75763 8.64149 4.78028C8.66105 4.80293 8.68489 4.82151 8.71163 4.83494C8.73838 4.84837 8.76751 4.8564 8.79736 4.85857C9.66677 4.92247 10.3112 5.20687 10.7819 5.71988C11.2535 6.23559 11.4776 6.8629 11.4605 7.64681C11.4599 7.67671 11.4652 7.70644 11.4761 7.73429C11.487 7.76215 11.5033 7.78758 11.524 7.80915C11.5447 7.83071 11.5695 7.84798 11.5969 7.85997C11.6243 7.87195 11.6538 7.87842 11.6837 7.87901C11.7438 7.88022 11.8019 7.85762 11.8454 7.81615C11.8889 7.77468 11.9142 7.71769 11.9159 7.65761C11.9348 6.77739 11.6675 6.01328 11.1176 5.41298C10.5623 4.80637 9.78557 4.47336 8.83156 4.40406H8.83066ZM9.17176 5.62538C9.14185 5.6238 9.11192 5.62814 9.08369 5.63815C9.05546 5.64816 9.02948 5.66364 9.00724 5.68371C8.985 5.70377 8.96694 5.72803 8.95409 5.75508C8.94124 5.78214 8.93386 5.81147 8.93236 5.84138C8.92917 5.90164 8.95004 5.96071 8.99037 6.0056C9.0307 6.05049 9.0872 6.07753 9.14746 6.08078C9.53987 6.10149 9.80447 6.21219 9.98447 6.39669C10.1627 6.58209 10.2725 6.8611 10.2932 7.2706C10.2962 7.33069 10.3229 7.38714 10.3674 7.42762C10.4119 7.46809 10.4707 7.4893 10.5308 7.4866C10.5907 7.48357 10.647 7.457 10.6875 7.41268C10.7279 7.36836 10.7492 7.30986 10.7468 7.2499C10.7225 6.76659 10.5848 6.36429 10.3112 6.07989C10.0367 5.79728 9.64247 5.64968 9.17176 5.62538ZM15.1442 1.75533C14.6969 1.34312 12.8888 0.0309064 8.86216 0.0129061C8.86216 0.0129061 4.1146 -0.273298 1.79977 1.84983C0.51185 3.13865 0.0582443 5.02417 0.0105437 7.3624C-0.037157 9.69973 -0.0992576 14.081 4.1236 15.269H4.1281L4.1254 17.0825C4.1254 17.0825 4.0984 17.816 4.5817 17.9654C5.16671 18.1472 5.50872 17.5892 6.06672 16.988C6.37363 16.6577 6.79663 16.1735 7.11524 15.8027C10.0043 16.0457 12.2255 15.4904 12.4775 15.4076C13.0607 15.2186 16.3611 14.7956 16.8966 10.4152C17.451 5.89988 16.6293 3.04325 15.1442 1.75533ZM15.6338 10.0912C15.1802 13.7489 12.5036 13.9793 12.0104 14.1377C11.8007 14.2052 9.84947 14.6903 7.39604 14.5301C7.39604 14.5301 5.56812 16.7351 4.99661 17.3093C4.90751 17.3993 4.80311 17.4353 4.73291 17.4173C4.6339 17.393 4.6069 17.2769 4.6087 17.1068L4.624 14.0945C1.05096 13.1027 1.25976 9.37303 1.30026 7.4209C1.34076 5.46788 1.70797 3.86856 2.79788 2.79214C4.75541 1.01912 8.78746 1.28372 8.78746 1.28372C12.1931 1.29902 13.8257 2.32504 14.2037 2.66794C15.4601 3.74435 16.101 6.31839 15.6329 10.0903L15.6338 10.0912Z" fill="#0B3373"/>
</svg>
