<svg width="22" height="18" viewBox="0 0 22 18" fill="none" xmlns="http://www.w3.org/2000/svg">
<path d="M19.4841 0.156702C19.4841 0.156702 21.4545 -0.61162 21.2903 1.25431C21.2356 2.02264 20.743 4.71177 20.3598 7.62044L19.0462 16.2367C19.0462 16.2367 18.9368 17.4989 17.9516 17.7184C16.9663 17.9379 15.4886 16.9501 15.2149 16.7306C14.9959 16.5659 11.1099 14.0963 9.74151 12.8889C9.35837 12.5597 8.9205 11.9011 9.79623 11.1328L15.5433 5.64476C16.2001 4.98618 16.8569 3.44954 14.1202 5.31547L6.45751 10.5291C6.45751 10.5291 5.58177 11.0779 3.93979 10.584L0.382092 9.48637C0.382092 9.48637 -0.931515 8.66318 1.31256 7.83993C6.78593 5.26055 13.5182 2.62629 19.4841 0.156702Z" fill="#0B3373"/>
</svg>
